# xmcd
# 
# Track frame offsets:
#     150
#     4273
#     20779
#     71549
#     72229
#     82369
#     95503
#     97578
#     128754
#     129554
#     131635
#     189014
#     234990
#     256681
#     266197
# 
# Disc length: 3931
# 
# Revision: 0
# Processed by: cddbd v1.5.2PL0 Copyright (c) Steve Scherf et al.
# Submitted via: fre:ac v1.0.17
# 
DISCID=c90f590f
DTITLE=Oliver Mally und Martin Moro -  live at ORF KulturCafe
DYEAR=2011
DGENRE=Blues
TTITLE0=Time
TTITLE1=Sugar Coated Love
TTITLE2=Bluebird
TTITLE3=I Ain't No Bad Boy
TTITLE4=Sleepy Town
TTITLE5=Ain't No Lookin' Back
TTITLE6=Love Is A Devil
TTITLE7=Lover's Waltz
TTITLE8=Workin' On Railroad
TTITLE9=Leave Your Light On
TTITLE10=Mashed Potatoes
TTITLE11=und
TTITLE12=noch
TTITLE13=viele
TTITLE14=andere
EXTD=Aufnahme aus OE1 on stage
EXTT0=
EXTT1=
EXTT2=
EXTT3=
EXTT4=
EXTT5=
EXTT6=
EXTT7=
EXTT8=
EXTT9=
EXTT10=
EXTT11=
EXTT12=
EXTT13=
EXTT14=
PLAYORDER=
